<svg viewBox="0 0 330 200" xmlns="http://www.w3.org/2000/svg"><g><g><g><g><g><line x1="49.98400115966797" y1="178.59099960327148" x2="44.98400115966797" y2="178.59099960327148" style="visibility: inherit;" fill="rgb(0, 0, 0)" stroke="rgb(204, 204, 204)" stroke-width="1px"></line><line x1="49.98400115966797" y1="156.26712465286255" x2="44.98400115966797" y2="156.26712465286255" style="visibility: inherit;" fill="rgb(0, 0, 0)" stroke="rgb(204, 204, 204)" stroke-width="1px"></line><line x1="49.98400115966797" y1="133.9432497024536" x2="44.98400115966797" y2="133.9432497024536" style="visibility: inherit;" fill="rgb(0, 0, 0)" stroke="rgb(204, 204, 204)" stroke-width="1px"></line><line x1="49.98400115966797" y1="111.61937475204466" x2="44.98400115966797" y2="111.61937475204466" style="visibility: inherit;" fill="rgb(0, 0, 0)" stroke="rgb(204, 204, 204)" stroke-width="1px"></line><line x1="49.98400115966797" y1="89.29549980163573" x2="44.98400115966797" y2="89.29549980163573" style="visibility: inherit;" fill="rgb(0, 0, 0)" stroke="rgb(204, 204, 204)" stroke-width="1px"></line><line x1="49.98400115966797" y1="66.9716248512268" x2="44.98400115966797" y2="66.9716248512268" style="visibility: inherit;" fill="rgb(0, 0, 0)" stroke="rgb(204, 204, 204)" stroke-width="1px"></line><line x1="49.98400115966797" y1="44.64774990081787" x2="44.98400115966797" y2="44.64774990081787" style="visibility: inherit;" fill="rgb(0, 0, 0)" stroke="rgb(204, 204, 204)" stroke-width="1px"></line><line x1="49.98400115966797" y1="22.323874950408936" x2="44.98400115966797" y2="22.323874950408936" style="visibility: inherit;" fill="rgb(0, 0, 0)" stroke="rgb(204, 204, 204)" stroke-width="1px"></line><line x1="49.98400115966797" y1="0" x2="44.98400115966797" y2="0" style="visibility: inherit;" fill="rgb(0, 0, 0)" stroke="rgb(204, 204, 204)" stroke-width="1px"></line></g><g transform="translate(39.98400115966797, 0)"><text style="text-anchor: end; visibility: hidden; font-family: &quot;Helvetica Neue&quot;, sans-serif; font-size: 12px; font-weight: 200;" x="0" y="178.59099960327148" dx="0em" dy="0.3em" fill="rgb(50, 49, 63)" stroke="none" stroke-width="1px">-0.2</text><text style="text-anchor: end; visibility: inherit; font-family: &quot;Helvetica Neue&quot;, sans-serif; font-size: 12px; font-weight: 200;" x="0" y="156.26712465286255" dx="0em" dy="0.3em" fill="rgb(50, 49, 63)" stroke="none" stroke-width="1px">0</text><text style="text-anchor: end; visibility: hidden; font-family: &quot;Helvetica Neue&quot;, sans-serif; font-size: 12px; font-weight: 200;" x="0" y="133.9432497024536" dx="0em" dy="0.3em" fill="rgb(50, 49, 63)" stroke="none" stroke-width="1px">0.2</text><text style="text-anchor: end; visibility: inherit; font-family: &quot;Helvetica Neue&quot;, sans-serif; font-size: 12px; font-weight: 200;" x="0" y="111.61937475204466" dx="0em" dy="0.3em" fill="rgb(50, 49, 63)" stroke="none" stroke-width="1px">0.4</text><text style="text-anchor: end; visibility: hidden; font-family: &quot;Helvetica Neue&quot;, sans-serif; font-size: 12px; font-weight: 200;" x="0" y="89.29549980163573" dx="0em" dy="0.3em" fill="rgb(50, 49, 63)" stroke="none" stroke-width="1px">0.6</text><text style="text-anchor: end; visibility: inherit; font-family: &quot;Helvetica Neue&quot;, sans-serif; font-size: 12px; font-weight: 200;" x="0" y="66.9716248512268" dx="0em" dy="0.3em" fill="rgb(50, 49, 63)" stroke="none" stroke-width="1px">0.8</text><text style="text-anchor: end; visibility: hidden; font-family: &quot;Helvetica Neue&quot;, sans-serif; font-size: 12px; font-weight: 200;" x="0" y="44.64774990081787" dx="0em" dy="0.3em" fill="rgb(50, 49, 63)" stroke="none" stroke-width="1px">1</text><text style="text-anchor: end; visibility: inherit; font-family: &quot;Helvetica Neue&quot;, sans-serif; font-size: 12px; font-weight: 200;" x="0" y="22.323874950408936" dx="0em" dy="0.3em" fill="rgb(50, 49, 63)" stroke="none" stroke-width="1px">1.2</text><text style="text-anchor: end; visibility: hidden; font-family: &quot;Helvetica Neue&quot;, sans-serif; font-size: 12px; font-weight: 200;" x="0" y="0" dx="0em" dy="0.3em" fill="rgb(50, 49, 63)" stroke="none" stroke-width="1px">1.4</text></g><line x1="49.98400115966797" y1="0" x2="49.98400115966797" y2="178.59099960327148" fill="rgb(0, 0, 0)" stroke="rgb(204, 204, 204)" stroke-width="1px"></line></g></g><g transform="translate(49, 0)" clip-path="url(#clip_0)"><clipPath id="clip_0"><rect width="280" height="178"></rect></clipPath><g><g><g><line x1="0" y1="0" x2="0" y2="178.59099960327148" fill="rgb(0, 0, 0)" stroke="rgb(60, 60, 60)" stroke-width="1px" opacity="0.25"></line><line x1="23.334666570027668" y1="0" x2="23.334666570027668" y2="178.59099960327148" fill="rgb(0, 0, 0)" stroke="rgb(60, 60, 60)" stroke-width="1px" opacity="0.25"></line><line x1="46.669333140055336" y1="0" x2="46.669333140055336" y2="178.59099960327148" fill="rgb(0, 0, 0)" stroke="rgb(60, 60, 60)" stroke-width="1px" opacity="0.25"></line><line x1="70.00399971008301" y1="0" x2="70.00399971008301" y2="178.59099960327148" fill="rgb(0, 0, 0)" stroke="rgb(60, 60, 60)" stroke-width="1px" opacity="0.25"></line><line x1="93.33866628011067" y1="0" x2="93.33866628011067" y2="178.59099960327148" fill="rgb(0, 0, 0)" stroke="rgb(60, 60, 60)" stroke-width="1px" opacity="0.25"></line><line x1="116.67333285013835" y1="0" x2="116.67333285013835" y2="178.59099960327148" fill="rgb(0, 0, 0)" stroke="rgb(60, 60, 60)" stroke-width="1px" opacity="0.25"></line><line x1="140.00799942016602" y1="0" x2="140.00799942016602" y2="178.59099960327148" fill="rgb(0, 0, 0)" stroke="rgb(60, 60, 60)" stroke-width="1px" opacity="0.25"></line><line x1="163.3426659901937" y1="0" x2="163.3426659901937" y2="178.59099960327148" fill="rgb(0, 0, 0)" stroke="rgb(60, 60, 60)" stroke-width="1px" opacity="0.25"></line><line x1="186.67733256022134" y1="0" x2="186.67733256022134" y2="178.59099960327148" fill="rgb(0, 0, 0)" stroke="rgb(60, 60, 60)" stroke-width="1px" opacity="0.25"></line><line x1="210.01199913024902" y1="0" x2="210.01199913024902" y2="178.59099960327148" fill="rgb(0, 0, 0)" stroke="rgb(60, 60, 60)" stroke-width="1px" opacity="0.25"></line><line x1="233.3466657002767" y1="0" x2="233.3466657002767" y2="178.59099960327148" fill="rgb(0, 0, 0)" stroke="rgb(60, 60, 60)" stroke-width="1px" opacity="0.25"></line><line x1="256.6813322703043" y1="0" x2="256.6813322703043" y2="178.59099960327148" fill="rgb(0, 0, 0)" stroke="rgb(60, 60, 60)" stroke-width="1px" opacity="0.25"></line><line x1="280.01599884033203" y1="0" x2="280.01599884033203" y2="178.59099960327148" fill="rgb(0, 0, 0)" stroke="rgb(60, 60, 60)" stroke-width="1px" opacity="0.25"></line></g><g><line x1="0" y1="178.59099960327148" x2="280.01599884033203" y2="178.59099960327148" fill="rgb(0, 0, 0)" stroke="rgb(60, 60, 60)" stroke-width="1px" opacity="0.25"></line><line x1="0" y1="156.26712465286255" x2="280.01599884033203" y2="156.26712465286255" fill="rgb(0, 0, 0)" stroke="rgb(60, 60, 60)" stroke-width="1px" opacity="0.25"></line><line x1="0" y1="133.9432497024536" x2="280.01599884033203" y2="133.9432497024536" fill="rgb(0, 0, 0)" stroke="rgb(60, 60, 60)" stroke-width="1px" opacity="0.25"></line><line x1="0" y1="111.61937475204466" x2="280.01599884033203" y2="111.61937475204466" fill="rgb(0, 0, 0)" stroke="rgb(60, 60, 60)" stroke-width="1px" opacity="0.25"></line><line x1="0" y1="89.29549980163573" x2="280.01599884033203" y2="89.29549980163573" fill="rgb(0, 0, 0)" stroke="rgb(60, 60, 60)" stroke-width="1px" opacity="0.25"></line><line x1="0" y1="66.9716248512268" x2="280.01599884033203" y2="66.9716248512268" fill="rgb(0, 0, 0)" stroke="rgb(60, 60, 60)" stroke-width="1px" opacity="0.25"></line><line x1="0" y1="44.64774990081787" x2="280.01599884033203" y2="44.64774990081787" fill="rgb(0, 0, 0)" stroke="rgb(60, 60, 60)" stroke-width="1px" opacity="0.25"></line><line x1="0" y1="22.323874950408936" x2="280.01599884033203" y2="22.323874950408936" fill="rgb(0, 0, 0)" stroke="rgb(60, 60, 60)" stroke-width="1px" opacity="0.25"></line><line x1="0" y1="0" x2="280.01599884033203" y2="0" fill="rgb(0, 0, 0)" stroke="rgb(60, 60, 60)" stroke-width="1px" opacity="0.25"></line></g></g></g><g><g><line x1="0" y1="156.26712465286255" x2="280.01599884033203" y2="156.26712465286255" fill="rgb(0, 0, 0)" stroke="rgb(153, 153, 153)" stroke-width="1.5px"></line></g></g><g><g><line x1="23.334666570027668" y1="0" x2="23.334666570027668" y2="178.59099960327148" fill="rgb(0, 0, 0)" stroke="rgb(153, 153, 153)" stroke-width="1.5px"></line></g></g><g><g><g><g><g><path style="fill: none;" stroke="rgb(255, 112, 67)" stroke-width="2px" d="M23.91803323427836,13.80411508952244L24.0347065671285,13.910206019903256L24.50139989852905,14.288674504844437L24.618073231379192,14.53344602501744L24.851419897079467,14.805015869267436L24.968093229929607,15.024689748809664L25.084766562779745,15.219243468743684L25.318113228480023,15.469718520358612L25.43478656133016,15.685405302439904L25.551459894180297,15.88120961976773L25.668133227030435,16.065516256039956L26.13482655843099,16.445178945437675L27.184886554082233,17.275610987084804L27.301559886932374,17.83992848235232L27.53490655263265,18.311534802754238L27.884926551183064,18.793918775244975L28.001599884033205,19.149670560970094L28.23494654973348,19.495747399859596L28.468293215433757,19.835838308858598L28.584966548283894,20.106029126201776L28.818313213984172,20.40029604445232L29.051659879684447,20.708802077187613L29.168333212534588,20.959800581493454L29.518353211085003,21.307786861632053L29.63502654393514,21.582272472047805L29.751699876785278,21.81260493742019L29.86837320963542,22.01639781706797L29.985046542485556,22.204213812097294L30.33506654103597,22.513210465915705L30.45173987388611,22.763935863205887L30.685086539586386,23.044882304744675L30.91843320528666,23.343743158026427L31.0351065381368,23.588131644828138L31.15177987098694,23.799788816412416L31.268453203837076,23.991743332589067L31.61847320238749,24.301498634275077L31.73514653523763,24.55210445499779L31.85181986808777,24.767172686195437L31.968493200937907,24.960859817371215L32.20183986663819,25.206215453678425L32.551859865188604,25.546739367548355L33.13522652943929,26.072166354206274L33.25189986228943,26.451483271961933L33.36857319513957,26.74308092419514L33.4852465279897,26.981999115309236L33.60191986083984,27.189251083073714L33.71859319368998,27.37745009256892L34.30195985794067,27.808794311219344L35.23534652074178,28.57425859257671L35.585366519292194,29.222632331702243L35.702039852142335,29.67457830179805L36.5187531820933,30.384654466521454L36.868773180643714,30.997980388218622L37.102119846343996,31.490547334538917L37.21879317919413,31.848290701370587L37.33546651204427,32.12508669624381L37.80215984344483,32.53918937019819L37.91883317629496,32.84952418316473L38.0355065091451,33.097534410420025L38.385526507695516,33.43144921960675L38.50219984054566,33.693383902679244L38.85221983909607,34.0349721147584L39.31891317049662,34.48503875171582L39.552259836196896,34.87729761465957L39.78560650189718,35.23464294885369L39.90227983474731,35.50995999875934L40.01895316759745,35.73600153139992L40.13562650044759,35.932419206989465L40.60231983184814,36.29288730400316L40.835666497548424,36.63013627274242L41.18568649609884,37.01350138080585L41.30235982894897,37.30374370200869L41.41903316179911,37.53805380440318L41.65237982749939,37.79880428996256L41.76905316034953,38.01524897332149L41.88572649319967,38.2050516286682L42.235746491750085,38.49840012257127L42.46909315745036,38.79376463420081L42.58576649030049,39.030567906357845L42.819113156000775,39.291664649640865L42.93578648885091,39.507736943140515L43.285806487401324,39.815277104104354L43.86917315165202,40.295137327277985L43.985846484502154,40.64194611091051L44.102519817352295,40.90886548412641L44.33586648305257,41.186509674052644L44.45253981590271,41.41175465096873L44.685886481602985,41.66404292296309L44.91923314730327,41.93231766280985L45.0359064801534,42.15164823621822L45.15257981300354,42.341548440645056L45.269253145853675,42.51373719941748L45.50259981155396,42.733366764411045L45.61927314440409,42.92321217702096L46.43598647435506,43.44195915493381L46.90267980575562,43.983237294560894L47.36937313715617,44.537084078078095L47.48604647000631,44.92650976866375L47.60271980285645,45.21722691801182L48.069413134257,45.61930803583408L48.41943313280741,46.030664120141836L48.76945313135783,46.44704761925976L48.88612646420797,46.75328479526203L49.236146462758384,47.10587043817321L49.35281979560852,47.37358939125684L49.5861664613088,47.64636429042531L49.70283979415893,47.86601317354754L49.819513127009074,48.05372257792342L50.05285979270935,48.27801272947812L50.16953312555949,48.468331254837494L50.402879791259764,48.69381963155067L50.519553124109905,48.88466814586272L50.636226456960046,49.054682179682004L50.98624645551046,49.32282216095831L51.33626645406087,49.64929748441446L51.919633118311566,50.11995294891079L52.15297978401184,50.51183386408056L52.386326449712115,50.85620521803325L52.502999782562256,51.11735362915249L53.086366446812946,51.545768518262534L53.43638644536336,51.9651275104535L53.5530597782135,52.27072295579474L53.66973311106364,52.5079964039076L53.786406443913776,52.70421810699143L54.01975310961405,52.92948277355812L54.48644644101461,53.27897569049419L54.71979310671488,53.59546592929564L54.95313977241516,53.891912390808514L55.18648643811544,54.17608775432714L55.76985310236613,54.61128256698338L56.00319976806641,54.97785269172742L56.46989309946696,55.40795343994476L57.05325976371765,55.927326403777L57.28660642941793,56.34304087803093L57.40327976226806,56.64442709052261L57.75329976081848,56.98074818712419L57.98664642651876,57.2858970461764L58.103319759368894,57.520571319688855L58.219993092219035,57.71289697275884L58.45333975791931,57.93115890244994L58.57001309076945,58.11344820308477L58.68668642361959,58.27409804080709L59.15337975502014,58.57497557132696L59.27005308787028,58.80646698502743L59.503399753570555,59.04711332273543L59.85341975212097,59.34366131666246L60.32011308352153,59.72360547377468L60.43678641637166,60.00192478437779L60.5534597492218,60.219197334317016L60.67013308207194,60.39979126480577L60.90347974777222,60.60841415558055L61.25349974632263,60.88351798462497L61.37017307917277,61.09844077393193L61.486846412022906,61.277183086638004L61.83686641057332,61.53344045026209L61.95353974342346,61.73673867593736L62.18688640912374,61.957621602628336L62.88692640622457,62.38538635913386L63.12027307192484,62.73996189419873L63.47029307047526,63.099119185870535L63.5869664033254,63.36329247406074L63.82031306902567,63.6189706496333L63.936986401875814,63.82087284444812L64.5203530661265,64.18356184526134L64.63702639897664,64.44930062657563L64.87037306467691,64.70480571087457L65.10371973037721,64.95392308412998L65.22039306322733,65.1512128493832L65.33706639607747,65.31734218071658L65.6870863946279,65.55991096498948L65.80375972747802,65.7529602149003L66.15377972602843,66.01093581060329L66.27045305887857,66.21298431575103L66.50379972457885,66.42855076814925L66.620473057429,66.60496484117179L66.85381972312926,66.80478072564995L67.32051305452983,67.11187064280281L67.43718638737997,67.34276767812791L67.5538597202301,67.5278904376644L67.78720638593039,67.73194688513995L67.90387971878052,67.90077900703758L68.25389971733092,68.14091111540793L68.37057305018108,68.33114380222132L68.48724638303122,68.49138095062182L68.60391971588135,68.63355158442947L68.83726638158161,68.8107350141728L68.95393971443175,68.96288979307033L69.07061304728191,69.09996617355512L69.18728638013204,69.22793962951349L70.23734637578329,69.71349936786599L70.35401970863342,70.04994809827902L70.5873663743337,70.34186214882726L70.93738637288412,70.65162273013722L71.75409970283508,71.14944246604733L71.87077303568522,71.4924541534396L72.33746636708578,71.87494975991314L72.45413969993591,72.14846625254361L72.57081303278605,72.35653939138953L72.80415969848633,72.56911815387667L73.0375063641866,72.78415545892749L73.50419969558716,73.0874473931311L74.5542596912384,73.6579969484765L74.67093302408854,74.04320148872274L74.78760635693868,74.31713781200425L74.90427968978882,74.5242546584149L75.13762635548909,74.73385390864223L75.25429968833923,74.90218754871783L75.60431968688965,75.13055606121547L75.95433968544006,75.3944026096587L76.77105301539103,75.84655904710041L76.88772634824117,76.15959137853697L77.00439968109131,76.38909336089166L77.12107301394144,76.56841592589201L77.35441967964172,76.75907391477794L77.47109301249186,76.91491710483429L77.587766345342,77.04980488526104L77.82111301104227,77.21333096865355L77.93778634389241,77.35265550621928L78.05445967674255,77.47740056959691L78.28780634244283,77.63436732679739L78.5211530081431,77.81043291352351L78.63782634099324,77.95692721172412L79.10451967239379,78.20765810838417L79.92123300234476,78.64079999356926L80.27125300089519,79.02096664218696L80.38792633374533,79.28904603835575L80.6212729994456,79.52967951119061L80.85461966514588,79.75360592083054L81.20463966369628,80.00685413079272L82.4880463250478,80.59030016047119L82.83806632359823,81.05684109959148L82.95473965644837,81.37547567133063L83.07141298929851,81.6053105371624L83.30475965499878,81.82034938458857L83.53810632069906,82.02628175662986L83.6547796535492,82.18821055282271L83.88812631924947,82.36193625882512L84.47149298350017,82.65660012059253L84.5881663163503,82.87131274315138L85.28820631345113,83.2264605382637L85.52155297915141,83.51453954414698L85.63822631200155,83.72479562265352L85.75489964485169,83.88830205925527L85.87157297770182,84.02371080887526L85.98824631055196,84.14219441597436L86.1049196434021,84.25047503572205L86.22159297625224,84.35257531636684L86.33826630910238,84.45090884685791L86.45493964195252,84.5469291029913L86.57161297480265,84.64150817024462L86.80495964050293,84.7720191200937L87.15497963905335,84.9605584661915L87.27165297190348,85.11031633576435L87.38832630475362,85.23674677273024L87.6216729704539,85.38559413134446L88.08836630185445,85.62022874213052L88.32171296755473,85.83334394657174L88.555059633255,86.03332396529115L89.02175296465556,86.29688709380679L89.1384262975057,86.49078369366357L89.25509963035583,86.64282449084631L89.48844629605611,86.80529497089692L89.72179296175639,86.9738050411799L89.95513962745666,87.14572330732717L90.18848629315694,87.31947093271792L90.30515962600708,87.4589380044054L90.65517962455749,87.64795172997091L90.88852629025777,87.83131527861386L91.00519962310791,87.97622989744661L91.12187295595805,88.09802193412781L91.23854628880818,88.20588453603933L91.35521962165832,88.30534423646343L91.47189295450846,88.39970364930304L91.70523962020874,88.52552947059404L91.82191295305888,88.63554622194418L92.40527961730957,88.87339347499604L92.52195295015972,89.05030906223645L92.75529961585998,89.22471853502955L92.87197294871012,89.3634144425316L92.98864628156026,89.48063164780692L93.33866628011067,89.65264959134127L93.57201294581095,89.8233886442607L93.80535961151124,89.99315544938912L94.0387062772115,90.1621286699944L94.27205294291178,90.33041816525053L94.50539960861207,90.4980951730884L94.62207294146219,90.63197452734167L94.73874627431233,90.74552206517873L95.08876627286276,90.91300964663643L95.5554596042633,91.1452641870768L95.67213293711345,91.31742700978212L95.90547960281373,91.48620119477074L96.02215293566385,91.62012677626169L96.25549960136414,91.76565257699531L96.72219293276468,91.98270220448732L97.30555959701537,92.27396997976304L98.12227292696635,92.6720889361328L98.23894625981649,92.94267132731402L98.47229292551677,93.16829110758498L98.58896625836691,93.33522496516365L98.70563959121704,93.46689670607478L98.82231292406718,93.57736593635973L98.93898625691732,93.67506043600353L99.05565958976746,93.76504485663699L99.28900625546773,93.88161926155487L99.40567958831787,93.98278259740952L99.87237291971843,94.16787102972228L99.98904625256856,94.30989795039272L100.22239291826884,94.45692078105714L100.45573958396912,94.60674688914902L100.80575958251953,94.7887045659654L101.03910624821981,94.95901256335938L101.15577958106995,95.09168954347616L101.27245291392009,95.20174533381429L101.6224729124705,95.35883222014802L101.73914624532064,95.48334234686067L101.85581957817078,95.58825585474847L101.97249291102092,95.68136881192899L102.08916624387105,95.76735087563299L102.32251290957133,95.87903030955654L102.43918624242147,95.97600855378961L102.55585957527161,96.064123504796L102.78920624097188,96.17670211760299L102.90587957382202,96.27403624545028L103.02255290667216,96.36217844169613L103.1392262395223,96.44475491592891L103.25589957237244,96.52394405511497L103.37257290522257,96.60106087507386L103.60591957092285,96.7063886120005L103.72259290377299,96.79904488508701L104.0726129023234,96.94274343676348L104.53930623372396,97.1457845080213L104.88932623227437,97.35474791818248L105.00599956512451,97.50907996468788L105.12267289797465,97.63059061358747L105.35601956367492,97.76117880061643L105.47269289652506,97.86830475073995L105.5893662293752,97.96130811809458L105.70603956222534,98.04579003394895L105.93938622792562,98.15371123610767L106.05605956077575,98.24701079218087L106.17273289362589,98.3314921199771L106.63942622502645,98.49574287064753L107.106119556427,98.70714206988536L107.22279288927714,98.86208134037619L107.45613955497741,99.01111400511654L107.57281288782755,99.1285029554585L107.6894862206777,99.22686043653579L107.80615955352783,99.31375645664188L107.92283288637798,99.39373035953966L108.0395062192281,99.46950575148676L108.38952621777852,99.59808866080624L108.50619955062866,99.70285647774367L109.2062395477295,99.9305127998279L109.43958621342976,100.1216933997313L109.5562595462799,100.26362996327461L109.67293287913004,100.37597752558948L109.78960621198019,100.47052777714828L110.02295287768047,100.58141627939952L110.37297287623088,100.72886623152479L110.48964620908102,100.84422510170893L110.83966620763142,100.99384499103891L110.95633954048157,101.1103381671097L111.0730128733317,101.2069100745993L111.30635953903199,101.3180801457635L111.53970620473225,101.43784012808965L111.88972620328268,101.58897233027716L112.00639953613282,101.7059910099578L112.23974620183309,101.82876251051177L112.58976620038351,101.98095382270631L112.70643953323365,102.09836047555676L112.82311286608378,102.19485508399507L113.05645953178406,102.30473598913007L113.1731328646342,102.3965953943418L113.28980619748434,102.47759798958056L113.5231528631846,102.57785369635002L113.63982619603475,102.66377564853278L113.75649952888489,102.74105343794452L114.33986619313558,102.91544309850899L114.80655952453613,103.12177382946331L114.92323285738627,103.27089637354045L115.15657952308655,103.41089968700513L115.38992618878683,103.54526779748608L115.6232728544871,103.6760991052003L115.73994618733724,103.77964522915296L115.85661952018738,103.86678165525626L115.97329285303752,103.94402835263092L116.08996618588766,104.01530528638924L116.20663951873779,104.08296044377863L116.43998618443807,104.17321443909708L116.67333285013835,104.2768720561965L116.90667951583862,104.38841616538807L117.25669951438904,104.5290742058408L117.49004618008931,104.66243003190651L117.60671951293945,104.76686814296423L117.72339284578959,104.85391836803134L118.19008617719014,105.00330540784377L118.42343284289042,105.14128921568582L118.54010617574056,105.24819807628293L118.77345284144084,105.36046744286095L119.12347283999125,105.49972972301387L119.35681950569153,105.63103591025387L119.47349283854167,105.73363482017672L119.5901661713918,105.81897476793667L119.94018616994222,105.94129833070315L120.29020616849263,106.08547408838791L120.40687950134277,106.19550200711755L120.64022616704305,106.30844659320894L120.87357283274332,106.4230001354139L121.1069194984436,106.53836869273708L121.69028616269429,106.72354554246263L121.92363282839457,106.88077979256305L122.04030616124471,106.99813185379372L122.15697949409486,107.09151734471672L122.27365282694498,107.17048696707592L122.6236728254954,107.28647082684581L123.32371282259624,107.49230328681841L123.5570594882965,107.66093294808972L123.67373282114664,107.78462327853428L123.79040615399678,107.8813154147102L123.90707948684692,107.9617740385524L124.02375281969707,108.03245529800856L124.49044615109761,108.16414509777341L124.7237928167979,108.28759325564923L124.84046614964804,108.3838247345111L125.19048614819845,108.50785045263521L125.30715948104859,108.60429274576914L125.42383281389873,108.68414905752974L125.54050614674885,108.75402450712039L125.657179479599,108.81787152120995L125.89052614529928,108.8999274146562L126.00719947814942,108.97098289956139L126.12387281099956,109.03540487417605L126.24054614384968,109.09581347745046L126.47389280954997,109.17546701971536L126.82391280810039,109.28811557374712L127.05725947380066,109.3987764429874L127.1739328066508,109.48666093110326L127.40727947235108,109.58226376979853L127.52395280520122,109.66101098287638L127.87397280375163,109.77222024112963L127.99064613660177,109.86019957588526L128.22399280230206,109.95539627145493L128.34066613515216,110.0336696037093L129.15737946510313,110.2278093419041L129.2740527979533,110.36519036204612L129.39072613080344,110.46848288619053L129.50739946365357,110.55128771696384L129.6240727965037,110.62176799715522L129.74074612935382,110.6848229430448L129.85741946220398,110.74339208440067L130.09076612790426,110.81990612136067L130.20743946075441,110.88645491368098L130.3241127936045,110.94699129405156L130.67413279215495,111.04494416046002L130.7908061250051,111.12419657765302L130.90747945785523,111.19219679075748L131.02415279070536,111.25341374684952L131.25749945640564,111.33088576510558L131.95753945350648,111.49884271711211L132.0742127863566,111.61975428915177L132.19088611920677,111.71240536804538L132.42423278490702,111.80811646668315L132.89092611630758,111.94541278921747L133.240946114858,112.08737248670413L133.59096611340843,112.23186142662158L134.05765944480896,112.39720961006468L134.40767944335937,112.55509428097714L134.5243527762095,112.66932512378152L134.64102610905965,112.757334396375L134.87437277475993,112.8489896818949L134.99104610761006,112.92336446947309L135.1077194404602,112.98734168494022L135.45773943901062,113.08360274987201L135.57441277186078,113.16059330776068L135.80775943756103,113.24516766031502L136.0411061032613,113.33417386567817L136.15777943611147,113.40666514109562L136.39112610181172,113.48824985192053L136.624472767512,113.57517219999926L136.74114610036216,113.64626679431609L136.97449276606244,113.72672475484048L137.2078394317627,113.81268497231208L137.32451276461285,113.88306124396115L137.44118609746297,113.94405521355742L137.55785943031313,113.99939718160921L137.9078794288635,114.0886594894264L138.02455276171366,114.16084802824001L138.14122609456382,114.22276303230545L138.4912460931142,114.31554602882048L138.60791942596435,114.38970593654932L139.54130608876548,114.58111282930815L139.89132608731586,114.75059300406187L140.00799942016602,114.87043856707481L140.2413460858663,114.97857699298592L140.47469275156658,115.07958335749836L140.5913660844167,115.15821024309628L140.9413860829671,115.25928525747685L141.05805941581727,115.33784156203818L141.29140608151755,115.42072209206265L141.40807941436768,115.48828320021877L141.5247527472178,115.5466247125145L141.64142608006796,115.5994091857679L141.99144607861837,115.68425756394484L142.92483274141946,115.87580772050168L143.04150607426962,116.00819936532565L143.15817940711975,116.10507195219043L143.39152607282003,116.19798820663866L143.6248727385203,116.28843086613922L143.74154607137044,116.36000233175297L143.8582194042206,116.4202257995085L144.09156606992084,116.49084388175154L144.32491273562113,116.56759494536942L144.44158606847128,116.63079843369036L144.5582594013214,116.68584809530705L144.90827939987182,116.77010624777958L145.02495273272197,116.83768758178286L145.1416260655721,116.89523355135857L145.7249927298228,117.014383723361L145.95833939552307,117.11954881931722L146.0750127283732,117.19944678567586L146.42503272692363,117.2976359251158L146.6583793926239,117.38992501504133L147.35841938972473,117.54483050661483L147.47509272257486,117.65427731567056L147.70843938827514,117.75287924596225L147.94178605397542,117.84487977592434L148.40847938537598,117.96546211219587L148.64182605107627,118.07036214410573L148.87517271677652,118.16575432850752L149.1085193824768,118.25534999254656L149.34186604817708,118.34136794887021L149.57521271387736,118.42515012992001L149.6918860467275,118.49146788519184L149.80855937957764,118.5472843646841L149.92523271242777,118.59677479718252L150.04190604527793,118.6424469811718L150.50859937667846,118.73353179457825L150.74194604237874,118.81988172452179L150.85861937522887,118.8875072729685L151.5586593723297,119.02249180410446L151.79200603803,119.13476774602178L152.02535270373028,119.23332938376325L152.1420260365804,119.30803313344771L152.25869936943053,119.36839553816525L152.95873936653138,119.49738686750753L153.30875936508178,119.62086589535902L153.54210603078207,119.72556657895423L153.89212602933247,119.83413723709171L154.24214602788288,119.94483428077899L154.35881936073304,120.02639214930065L154.59216602643332,120.10554361652032L154.70883935928344,120.16810760882959L154.82551269213357,120.22070048769973L154.94218602498373,120.26728807819353L155.175532690684,120.3252378285015L155.29220602353413,120.37497567273948L155.52555268923442,120.43468517584353L155.64222602208454,120.48541367203397L155.7588993549347,120.53073227437008L156.1089193534851,120.60243755018685L156.22559268633523,120.66025573086738L156.45893935203551,120.72447146993142L157.39232601483664,120.88026727623837L157.50899934768677,120.98830824965825L157.6256726805369,121.06767503363972L157.74234601338705,121.1298173448586L158.09236601193746,121.21054437705605L158.20903934478758,121.27342033959307L158.32571267763774,121.3255643706276L158.67573267618815,121.3999824033682L158.7924060090383,121.45896917891346L158.90907934188843,121.50867724104194L159.25909934043884,121.58132765291252L160.6591793346405,121.7944052509567L161.0091993331909,121.96417523307716L161.2425459988912,122.09388681924993L161.35921933174134,122.18560929605782L161.5925659974416,122.268375285659L161.70923933029175,122.3318705272253L162.05925932884216,122.41136018341115L162.40927932739257,122.50027350950594L162.52595266024272,122.56732143109153L162.64262599309285,122.62123148147862L162.759299325943,122.66723885004711L162.87597265879313,122.70848731163815L162.99264599164326,122.74685913933652L163.1093193244934,122.78348502759978L163.22599265734354,122.81904605431566L163.45933932304382,122.86749511116909L163.6926859887441,122.92360380274002L163.80935932159423,122.9707587077627L164.0427059872945,123.02597381485118L164.2760526529948,123.08595052920751L164.50939931869507,123.1487096939529L164.6260726515452,123.19972448342989L164.74274598439536,123.24367135803965L164.85941931724548,123.28336151644943L164.9760926500956,123.32047768603968L165.09276598294576,123.35603216445195L165.55945931434633,123.43031501198938L166.14282597859702,123.54065793715716L166.25949931144714,123.61996218398687L166.49284597714743,123.69368982188388L166.60951930999755,123.75097167208563L167.07621264139812,123.83733955895173L167.19288597424824,123.90211507728364L167.3095593070984,123.95391787660881L167.54290597279868,124.01081864737716L167.8929259713491,124.08355601654111L168.2429459698995,124.16563301073272L168.47629263559978,124.2404148792074L168.70963930130006,124.31074781949357L168.82631263415018,124.36565487704317L169.05965929985047,124.42395781285L169.1763326327006,124.47159364344654L169.52635263125103,124.53803090061088L169.64302596410116,124.59047680187018L169.75969929695128,124.63451059170023L169.99304596265156,124.68601280069493L170.10971929550172,124.72942715090075L170.22639262835185,124.76797547976685L170.45973929405213,124.81604669848636L170.57641262690225,124.85733725480188L170.6930859597524,124.89453945457545L170.80975929260254,124.9292726731442L170.9264326254527,124.96250853571041L171.04310595830282,124.99482868678885L171.6264726225535,125.07585580744197L171.74314595540363,125.13674958726816L171.97649262110392,125.19778764576708L172.44318595250448,125.28321713229067L172.5598592853546,125.34663523825516L172.7932059510549,125.40895370566903L173.25989928245545,125.49468838643213L173.49324594815573,125.57020119954963L173.72659261385598,125.63951436174794L173.95993927955627,125.70504519488284L174.07661261240642,125.75631121175228L174.19328594525655,125.79899971036953L174.3099592781067,125.83652839196911L174.54330594380696,125.88282354152184L174.8933259423574,125.94615177936561L175.00999927520752,125.99596450900337L175.2433459409078,126.04943981062999L175.36001927375793,126.0932942073052L175.47669260660808,126.13136142433653L175.71003927230834,126.1776603495556L176.1767326037089,126.25217060975842L176.41007926940918,126.32014774534463L176.5267526022593,126.37254623081247L176.7600992679596,126.4271618284865L176.87677260080974,126.47149548936814L177.22679259936015,126.53269678087082L177.34346593221028,126.580921980751L177.92683259646097,126.66713971637739L178.04350592931112,126.73028164026725L178.16017926216125,126.7795607792289L178.2768525950114,126.82050894116728L178.51019926071166,126.86779262422078L178.74354592641194,126.91881774264473L178.8602192592621,126.96073631707557L178.97689259211222,126.99717632843755L179.09356592496235,127.03031456528518L179.2102392578125,127.06145843135789L179.32691259066263,127.0913870464727L179.67693258921307,127.14298727373705L180.02695258776347,127.20745607702088L180.26029925346376,127.26840106923191L180.493645919164,127.32717322810726L180.61031925201416,127.37351781550066L180.7269925848643,127.41238989272523L180.84366591771445,127.44676382717552L180.96033925056457,127.47842423928824L181.42703258196514,127.54142098680933L181.89372591336567,127.62298534880742L182.12707257906595,127.69372196392425L182.2437459119161,127.74703898103388L182.59376591046652,127.81157449902008L182.71043924331664,127.86111497237263L182.8271125761668,127.90164378227195L183.1771325747172,127.95828948705024L183.5271525732676,128.02448025173206L183.64382590611777,128.0749007715379L183.7604992389679,128.11584450774507L183.99384590466818,128.1617523493111L184.1105192375183,128.19994589916203L184.22719257036846,128.2334975679176L184.57721256891887,128.28545268809438L184.81055923461915,128.3377710955633L184.92723256746928,128.37971385067152L185.04390590031943,128.41541990420694L185.16057923316956,128.44736663891237L185.27725256601968,128.47704580686013L185.39392589886984,128.50534979808023L185.62727256457012,128.54328525551617L185.74394589742025,128.57650177162347L186.09396589597065,128.6277175698269L186.67733256022134,128.7103194178635L188.077412554423,128.8830015587543L188.19408588727316,128.9967846616309L188.3107592201233,129.07521570093596L188.42743255297344,129.13242086542508L188.89412588437398,129.20720238950582L189.24414588292439,129.2822787358145L189.36081921577454,129.33736663188483L189.59416588147482,129.3904676197181L189.71083921432495,129.43233104780745L189.82751254717508,129.46744062989399L189.94418588002523,129.4984852636158L190.1775325457255,129.53702856398297L190.4108792114258,129.5800218318918L190.52755254427592,129.61573147738181L190.64422587712605,129.6470589739608L190.87757254282633,129.68561897227912L190.99424587567648,129.71862008887257L191.1109192085266,129.74826990915147L191.3442658742269,129.7857241714953L191.57761253992717,129.82780920541927L192.277652537028,129.9115982688334L192.51099920272827,129.98128392710072L193.09436586697896,130.0714109796365L193.2110391998291,130.13511281956593L193.67773253122965,130.2117159372547L194.26109919548034,130.3053813863906L194.3777725283305,130.37108318316618L194.84446585973103,130.44839993823703L195.3111591911316,130.53249406092942L195.661179189682,130.61110417506174L196.0111991882324,130.68631477431384L196.12787252108257,130.7407666904765L196.2445458539327,130.78275208662913L196.5945658524831,130.83581154971407L196.71123918533326,130.87691423748444L197.06125918388366,130.9293043618432L197.29460584958395,130.9791660077664L197.41127918243407,131.01828014839128L197.52795251528423,131.0509324797709L198.3446658452352,131.13449478855492L198.46133917808532,131.193726204882L198.57801251093545,131.2383464449719L198.6946858437856,131.2741893344664L198.9280325094859,131.31379996736166L199.04470584233601,131.3466024967668L199.16137917518617,131.3753095192248L199.2780525080363,131.4015459314481L199.39472584088642,131.4262906632842L199.51139917373658,131.4501290767315L199.6280725065867,131.47341238898917L199.74474583943686,131.4963506650733L199.861419172287,131.5190706092969L200.2114391708374,131.5595069812186L200.44478583653768,131.60158429662678L201.02815250078837,131.6711724867274L201.14482583363852,131.7217599635503L201.26149916648865,131.7609376981602L201.49484583218893,131.80205890957916L202.3115591621399,131.8880419984173L202.54490582784018,131.95705215380434L203.12827249209087,132.04182005610448L203.244945824941,132.10132109167824L203.71163915634156,132.17147511065957L203.94498582204184,132.23073035174835L204.06165915489197,132.27484927662363L204.29500582059225,132.31842025743356L204.41167915344238,132.35309735688557L204.64502581914266,132.39093937332296L204.7616991519928,132.42214782489555L205.46173914909363,132.49166880418474L205.57841248194376,132.54181078480005L205.6950858147939,132.5803160519646L206.2784524790446,132.64536126405017L206.39512581189473,132.69274726219157L207.44518580754598,132.79593832964088L207.5618591403961,132.86611138019947L207.91187913894655,132.93292324516648L208.02855247179667,132.98122552952L208.1452258046468,133.01841341656228L208.37857247034708,133.05710791239207L208.61191913604736,133.09666778590187L208.84526580174764,133.13670563721396L209.19528580029805,133.18510705749057L209.3119591331482,133.22225463058896L209.54530579884846,133.26072800827023L209.66197913169862,133.29188881716212L209.8953257973989,133.32671225493075L210.12867246309915,133.36369202121975L210.2453457959493,133.39390809613403L210.4786924616496,133.4280648980184L210.5953657944997,133.45655991685385L211.06205912590028,133.50555822226355L211.1787324587504,133.54290824546533L211.41207912445068,133.58119306186234L211.5287524573008,133.61208704891715L211.64542579015097,133.63853522821023L211.7620991230011,133.66230793920647L211.99544578870137,133.69234989929902L212.1121191215515,133.71825027073223L212.22879245440166,133.74165637472342L212.34546578725178,133.76355593869962L212.81215911865235,133.80802747155334L213.04550578435263,133.85031840711088L213.16217911720275,133.8834836703017L213.2788524500529,133.91116421582603L213.51219911575316,133.94330737562095L213.74554578145344,133.97809018168908L213.97889244715373,134.01442084914194L214.212239112854,134.05164031522654L214.32891244570413,134.08167021957237L214.4455857785543,134.10737574202184L214.67893244425457,134.13814893364938L214.7956057771047,134.16427448163847L214.91227910995482,134.187602129198L215.02895244280498,134.20924172225338L215.1456257756551,134.2298585030565L215.26229910850526,134.24985361286843L215.4956457742055,134.27707281867634L215.61231910705567,134.30100210605508L215.96233910560608,134.33809708468564L216.0790124384562,134.3679165746821L216.31235910415649,134.40090466627362L216.42903243700664,134.4282320813073L216.77905243555705,134.46717765569176L216.89572576840717,134.49804363402203L217.01239910125733,134.52405320577665L217.12907243410746,134.54714094994608L217.2457457669576,134.56846495271128L217.47909243265786,134.5961774506747L217.94578576405843,134.6425333629239L218.1791324297587,134.68516121926007L218.29580576260884,134.7181307835338L218.412479095459,134.7452967236269L218.7624990940094,134.78369566800387L218.87917242685953,134.81408597099303L219.1125190925598,134.84699408277308L219.57921242396037,134.89598169188992L219.6958857568105,134.93266265521103L219.81255908966065,134.9619529780216L219.92923242251078,134.98680026758262L220.16257908821106,135.01622622502603L220.62927241961162,135.06281717140786L220.74594575246175,135.09798495781303L220.97929241816203,135.13348545467557L221.09596575101216,135.16197368984308L221.2126390838623,135.18624525374713L221.32931241671244,135.20797883125329L221.56265908241272,135.23533497455833L221.91267908096313,135.27316011723144L222.02935241381329,135.30297594425016L222.1460257466634,135.3279768676298L222.26269907951354,135.3500821957928L222.3793724123637,135.37044085257935L222.7293924109141,135.40389319387202L222.84606574376423,135.43102745867378L223.3127590751648,135.47547696004804L223.42943240801495,135.50916827209306L223.6627790737152,135.54340166553814L223.77945240656535,135.57094002720953L223.89612573941548,135.59445139026687L224.36281907081604,135.63643375183113L224.71283906936645,135.6824464973265L224.94618573506673,135.72389511485588L225.29620573361714,135.7694671940297L225.4128790664673,135.80369433496756L225.52955239931742,135.83110719462735L225.64622573216755,135.8544248324871L225.7628990650177,135.87527602302038L225.996245730718,135.9014853326624L226.1129190635681,135.9240482406489L226.22959239641824,135.94441465869895L226.57961239496868,135.97707528867778L226.6962857278188,136.00346973597064L226.92963239351909,136.03287925734122L227.0463057263692,136.05729908854966L227.16297905921937,136.07871778732425L227.51299905776978,136.11182350080875L227.74634572347006,136.14515067215018L227.86301905632018,136.1718672037723L227.97969238917034,136.19460870261975L228.09636572202047,136.21495919407246L228.91307905197144,136.2738890838591L229.02975238482156,136.3158914019701L229.379772383372,136.3609780437148L229.9631390476227,136.4210224203119L230.42983237902322,136.4833085682401L230.6631790447235,136.533764112053L230.8965257104238,136.5770926853541L231.12987237612407,136.61611513769876L231.2465457089742,136.64603061843445L231.36321904182435,136.67047326726166L231.47989237467448,136.69162622921388L231.94658570607504,136.7301916524306L232.06325903892517,136.75978102203072L232.17993237177532,136.78397677582106L232.41327903747558,136.81135853305625L232.52995237032573,136.8342090950248L232.64662570317586,136.8543329561935L233.11331903457642,136.8919895160867L233.3466657002767,136.92733132890297L233.58001236597696,136.96125635073366L233.81335903167724,136.99430202462702L233.9300323645274,137.0204624512491L234.16337903022767,137.04880745390827L234.6300723616282,137.09102545944418L234.8634190273285,137.12891785471695L234.98009236017862,137.15792577156475L235.33011235872905,137.19409939358357L235.68013235727946,137.23451123079974L236.14682568868002,137.28360342024484L236.38017235438028,137.32543869805727L236.49684568723043,137.3567198672676L236.84686568578084,137.3939879928601L237.3135590171814,137.44091785445391L237.43023235003153,137.4752005537577L237.5469056828817,137.50188963326093L237.6635790157318,137.52401389194065L238.01359901428222,137.55558162718611L238.13027234713238,137.5806077977851L238.2469456799825,137.60169971534975L238.48029234568278,137.6264906637161L238.5969656785329,137.64742148884162L238.71363901138307,137.6660315828994L238.94698567708335,137.68927888228953L239.06365900993347,137.7092569058966L239.41367900848388,137.7392940643873L239.53035234133404,137.76332072192864L239.7636990070343,137.78972348633772L239.99704567273457,137.81752663334132L240.11371900558473,137.84017895352116L240.23039233843485,137.85973412457352L241.04710566838583,137.9130313867071L241.16377900123595,137.9509216292729L241.2804523340861,137.97956034176153L241.39712566693623,138.00264281377733L242.09716566403708,138.05174738512233L242.2138389968872,138.08706280121964L242.33051232973733,138.11409940174184L242.4471856625875,138.13616205988575L242.5638589954376,138.1552330342662L242.7972056611379,138.1783244146931L243.1472256596883,138.20960486745992L243.49724565823874,138.245740882242L243.96393898963927,138.290491218367L244.08061232248943,138.323092967228L244.19728565533956,138.34839891069737L244.3139589881897,138.3693207178986L244.43063232103984,138.3876067209124L244.66397898674012,138.41002486631055L244.78065231959025,138.42918937844627L245.2473456509908,138.46348204271305L245.59736564954122,138.5010854143995L245.71403898239134,138.52931249516598L246.06405898094178,138.5632046639939L246.1807323137919,138.58918040682246L246.29740564664206,138.6103983104116L246.4140789794922,138.62875751863717L246.53075231234232,138.6453935260048L246.7640989780426,138.66659879740368L246.88077231089275,138.68492381418235L246.99744564374288,138.7015160210657L247.114118976593,138.71706321958533L247.23079230944316,138.7319767600535L247.69748564084372,138.7632025659448L247.81415897369385,138.78749266688337L247.93083230654398,138.80761602242376L248.2808523050944,138.8362993330872L248.51419897079467,138.86455268926431L248.63087230364482,138.88701807156863L248.74754563649495,138.90600335121277L248.98089230219523,138.92838998693938L249.09756563504536,138.9473107207506L249.2142389678955,138.9641472562894L249.4475856335958,138.98519740901722L249.56425896644592,139.0032923021097L249.91427896499633,139.03050971186343L250.1476256306966,139.05771919757512L250.3809722963969,139.08489864733548L250.49764562924702,139.10662521271854L250.7309922949473,139.13048097981252L251.0810122934977,139.16098060449775L251.314358959198,139.19004232578433L251.43103229204814,139.21285101754754L251.54770562489827,139.2319025691702L251.78105229059855,139.25405020599356L252.01439895629883,139.27803087771463L252.13107228914896,139.2977570092693L252.24774562199912,139.3149244289943L252.71443895339965,139.34649728912586L252.8311122862498,139.37074480325762L253.0644589519501,139.395883609956L253.29780561765034,139.4215352371849L253.88117228190103,139.46324694339742L254.3478656133016,139.50923102164873L254.46453894615172,139.54204742616406L254.58121227900187,139.56695657340467L254.697885611852,139.58711604385388L256.09796560605366,139.6613523866513L256.3313122717539,139.7161744592028L256.5646589374542,139.75932667990057L256.6813322703043,139.79033885195952" fill="none"></path></g></g></g></g><g opacity="0.2"><g><g><g><path style="fill: none;" stroke="rgb(255, 112, 67)" stroke-width="2px" d="M23.91803323427836,13.80411508952244L24.0347065671285,13.973860578131735L24.50139989852905,14.65200425038796L24.618073231379192,14.821297332740869L24.851419897079467,15.159577457920307L24.968093229929607,15.3285778068132L25.084766562779745,15.497458401108815L25.318113228480023,15.834913550173667L25.43478656133016,16.003501411009267L25.551459894180297,16.171956211181225L25.668133227030435,16.34030456282227L26.13482655843099,17.01260687194457L27.184886554082233,18.518547544856233L27.301559886932374,18.68529916853356L27.53490655263265,19.018389927830924L27.884926551183064,19.517154519430107L28.001599884033205,19.68314769732467L28.23494654973348,20.01477478932196L28.468293215433757,20.345922862930138L28.584966548283894,20.51129065570558L28.818313213984172,20.84168028353099L29.051659879684447,21.171550974768195L29.168333212534588,21.336293382424515L29.518353211085003,21.82976215961071L29.63502654393514,21.993998936745186L29.751699876785278,22.15810265321602L29.86837320963542,22.322086615089574L29.985046542485556,22.485937516299487L30.33506654103597,22.97670516201373L30.45173987388611,23.14002382056907L30.685086539586386,23.466301873887915L30.91843320528666,23.792034378485823L31.0351065381368,23.954714345855677L31.15177987098694,24.117274558628253L31.268453203837076,24.279675098604457L31.61847320238749,24.76613157881667L31.73514653523763,24.928013182204666L31.85181986808777,25.089775030995384L31.968493200937907,25.251390513056094L32.20183986663819,25.574248907319316L32.551859865188604,26.05752523767046L33.13522652943929,26.860306833561026L33.25189986228943,27.020458648321664L33.36857319513957,27.18047740241866L33.4852465279897,27.340376401918377L33.60191986083984,27.500129034688086L33.71859319368998,27.659748606794153L34.30195985794067,28.45581063917075L35.23534652074178,29.722455014586956L35.585366519292194,30.19519294037758L35.702039852142335,30.35249725693626L36.5187531820933,31.449768713601372L36.868773180643714,31.917969270761773L37.102119846343996,32.229397754018066L37.21879317919413,32.384905751617566L37.33546651204427,32.54028068855342L37.80215984344483,33.16034338112951L37.91883317629496,33.31502640261442L38.0355065091451,33.469549751302964L38.385526507695516,33.93232143338673L38.50219984054566,34.086285927287975L38.85221983909607,34.547354432877114L39.31891317049662,35.16013870715193L39.552259836196896,35.465685909075205L39.78560650189718,35.770660950144816L39.90227983474731,35.92293557361779L40.01895316759745,36.07506383036076L40.13562650044759,36.227045720373724L40.60231983184814,36.833589449523686L40.835666497548424,37.13600972585135L41.18568649609884,37.58854904290098L41.30235982894897,37.73910718381296L41.41903316179911,37.88951895799494L41.65237982749939,38.189930018301595L41.76905316034953,38.33991599835991L41.88572649319967,38.489755611688224L42.235746491750085,38.93842286342584L42.46909315745036,39.23681140164513L42.58576649030049,39.385772814593395L42.819113156000775,39.683309764565365L42.93578648885091,39.831845383389975L43.285806487401324,40.276587345550126L43.86917315165202,41.01492766203842L43.985846484502154,41.162159286359326L44.102519817352295,41.30924454395023L44.33586648305257,41.60297595894201L44.45253981590271,41.74962211634289L44.685886481602985,42.04247533095463L44.91923314730327,42.334729772579976L45.0359064801534,42.48064409633082L45.15257981300354,42.62639874728529L45.269253145853675,42.77202033757612L45.50259981155396,43.0628111119014L45.61927314440409,43.20798029593584L46.43598647435506,44.22007962180311L46.90267980575562,44.795154504001516L47.36937313715617,45.3678542533539L47.48604647000631,45.510648304542315L47.60271980285645,45.65330264203391L48.069413134257,46.222429712567475L48.41943313280741,46.64769824660348L48.76945313135783,47.071622867936696L48.88612646420797,47.21264055926548L49.236146462758384,47.63474890253997L49.35281979560852,47.77516782088236L49.5861664613088,48.05552663917803L49.70283979415893,48.19548649823085L49.819513127009074,48.3352866844873L50.05285979270935,48.61444795681018L50.16953312555949,48.75380904287661L50.402879791259764,49.032052196620356L50.519553124109905,49.17094091733085L50.636226456960046,49.30970323041089L50.98624645551046,49.72503213287277L51.33626645406087,50.139010469598674L51.919633118311566,50.825936145655334L52.15297978401184,51.09965523683522L52.386326449712115,51.372762248962346L52.502999782562256,51.50907624583135L53.086366446812946,52.188390851927636L53.43638644536336,52.59416599873995L53.5530597782135,52.72911612380662L53.66973311106364,52.863906576076914L53.786406443913776,52.9985506616172L54.01975310961405,53.26737977340821L54.48644644101461,53.803215065898314L54.71979310671488,54.070201287497866L54.95313977241516,54.33658208307784L55.18648643811544,54.60235079960506L55.76985310236613,55.26407478596775L56.00319976806641,55.5277078788435L56.46989309946696,56.05310456227082L57.05325976371765,56.70638584952536L57.28660642941793,56.96661258941185L57.40327976226806,57.09650640926009L57.75329976081848,57.48522983202656L57.98664642651876,57.74362033475478L58.103319759368894,57.872582729957514L58.219993092219035,58.00138545236388L58.45333975791931,58.25855179698658L58.57001309076945,58.38688215403701L58.68668642361959,58.515072797390616L59.15337975502014,59.02629186710678L59.27005308787028,59.15370410557807L59.503399753570555,59.408082829297456L59.85341975212097,59.788483307553065L60.32011308352153,60.29352170944301L60.43678641637166,60.41940375028241L60.5534597492218,60.545106159225895L60.67013308207194,60.67068216053892L60.90347974777222,60.92134849174266L61.25349974632263,61.29617372819163L61.37017307917277,61.420824957892336L61.486846412022906,61.54529655569712L61.83686641057332,61.91782649569825L61.95353974342346,62.04168601445028L62.18688640912374,62.288945992664765L62.88692640622457,63.027033493892134L63.12027307192484,63.271825196796044L63.47029307047526,63.637855123378216L63.5869664033254,63.759552406346046L63.82031306902567,64.00248791299214L63.936986401875814,64.1237261366704L64.5203530661265,64.72759534648114L64.63702639897664,64.84790879854708L64.87037306467691,65.08806333732304L65.10371973037721,65.32759914401305L65.22039306322733,65.44714749726305L65.33706639607747,65.56653617771667L65.6870863946279,65.92376414139886L65.80375972747802,66.04253408976655L66.15377972602843,66.39789920415774L66.27045305887857,66.51605707347267L66.50379972457885,66.75190044674659L66.620473057429,66.86958595070558L66.85381972312926,67.10450455236719L67.32051305452983,67.57250551853213L67.43718638737997,67.68911323111561L67.5538597202301,67.8055745769691L67.78720638593039,68.0380315563533L67.90387971878052,68.15402718988403L68.25389971733092,68.50110927796345L68.37057305018108,68.61649283244142L68.48724638303122,68.73173667322257L68.60391971588135,68.84680753514098L68.83726638158161,69.07651015878778L68.95393971443175,69.19112196141663L69.07061304728191,69.30558074428228L69.18728638013204,69.41989981345111L70.23734637578329,70.44183897539477L70.35401970863342,70.55462119389853L70.5873663743337,70.77973322464965L70.93738637288412,71.11626360210218L71.75409970283508,71.89617206991252L71.87077303568522,72.006971684528L72.33746636708578,72.44869316962345L72.45413969993591,72.55874099148934L72.57081303278605,72.66864909965841L72.80415969848633,72.88798629760743L73.0375063641866,73.10671141650369L73.50419969558716,73.54238529443657L74.5542596912384,74.51382128149456L74.67093302408854,74.62100829909213L74.78760635693868,74.7280422969265L74.90427968978882,74.83492992803087L75.13762635548909,75.04825278398323L75.25429968833923,75.15468800883122L75.60431968688965,75.47310882996194L75.95433968544006,75.79017243232352L76.77105301539103,76.52479370326299L76.88772634824117,76.62913987569178L77.00439968109131,76.73334633442374L77.12107301394144,76.83739977339252L77.35441967964172,77.04506089810687L77.47109301249186,77.1486818899188L77.587766345342,77.25213655590119L77.82111301104227,77.4586200937423L77.93778634389241,77.56164231256784L78.05445967674255,77.66451816466338L78.28780634244283,77.86981746259806L78.5211530081431,78.07453129361272L78.63782634099324,78.17666865902504L79.10451967239379,78.58375445337424L79.92123300234476,79.29051282134688L80.27125300089519,79.59121661511355L80.38792633374533,79.69116513260894L80.6212729994456,79.89062972044289L80.85461966514588,80.08949553529044L81.20463966369628,80.38672644573603L82.4880463250478,81.46546920498886L82.83806632359823,81.75665250827188L82.95473965644837,81.85342752893939L83.07141298929851,81.95006283591007L83.30475965499878,82.14290765572778L83.53810632069906,82.33518031469183L83.6547796535492,82.43110374711202L83.88812631924947,82.62252481782875L84.47149298350017,83.09859591324363L84.5881663163503,83.19338167698967L85.28820631345113,83.75918223093217L85.52155297915141,83.94665805297188L85.63822631200155,84.04017974041332L85.75489964485169,84.13356171415793L85.87157297770182,84.22682393330527L85.98824631055196,84.31991982662305L86.1049196434021,84.41289596534355L86.22159297625224,84.50572573733405L86.33826630910238,84.59840914259453L86.45493964195252,84.69095948719138L86.57161297480265,84.78337677112458L86.80495964050293,84.96778554486733L87.15497963905335,85.24336748533821L87.27165297190348,85.33495314012364L87.38832630475362,85.42639242817907L87.6216729704539,85.60886516926581L88.08836630185445,85.97218065830967L88.32171296755473,86.1530167532336L88.555059633255,86.33329399337023L89.02175296465556,86.69223178658024L89.1384262975057,86.78162859344874L89.25509963035583,86.87088568662043L89.48844629605611,87.04900069097286L89.72179296175639,87.22657014660436L89.95513962745666,87.4036007065481L90.18848629315694,87.5800923708041L90.30515962600708,87.66813861193663L90.65517962455749,87.93147231831918L90.88852629025777,88.10636060157827L91.00519962310791,88.19360182569577L91.12187295595805,88.28070998914961L91.23854628880818,88.36767843890664L91.35521962165832,88.45453378709956L91.47189295450846,88.54124276856248L91.70523962020874,88.71426820253058L91.82191295305888,88.80057134896938L92.40527961730957,89.23016435457379L92.52195295015972,89.3156824430971L92.75529961585998,89.48633274421917L92.87197294871012,89.57145830378474L92.98864628156026,89.65645745571985L93.33866628011067,89.91067650664286L93.57201294581095,90.07949722363983L93.80535961151124,90.24780565708178L94.0387062772115,90.41558850090235L94.27205294291178,90.5828524081347L94.50539960861207,90.74961068484521L94.62207294146219,90.83279355872159L94.73874627431233,90.91584337193433L95.08876627286276,91.16424101882296L95.5554596042633,91.49364599773742L95.67213293711345,91.5756712438401L95.90547960281373,91.73936247225365L96.02215293566385,91.82101514849813L96.25549960136414,91.98394127809573L96.72219293276468,92.30827664572539L97.30555959701537,92.71087164267664L98.12227292696635,93.2692673706874L98.23894625981649,93.34854491408586L98.47229292551677,93.5067207779914L98.58896625836691,93.58562575153167L98.70563959121704,93.66440431744147L98.82231292406718,93.74306978178717L98.93898625691732,93.82160218546923L99.05565958976746,93.9000214875872L99.28900625546773,94.05648086893174L99.40567958831787,94.13452760119151L99.87237291971843,94.44550367819141L99.98904625256856,94.52293833139842L100.22239291826884,94.67745502705378L100.45573958396912,94.83148605128684L100.80575958251953,95.06164108119003L101.03910624821981,95.21447455945031L101.15577958106995,95.29070501365135L101.27245291392009,95.36682901932147L101.6224729124705,95.59446254964863L101.73914624532064,95.67010753692963L101.85581957817078,95.74562611658018L101.97249291102092,95.82103824769982L102.08916624387105,95.89632397118899L102.32251290957133,96.04654946044187L102.43918624242147,96.1214759201392L102.55585957527161,96.19629593130563L102.78920624097188,96.34557003681346L102.90587957382202,96.42003743722123L103.02255290667216,96.4943917360649L103.1392262395223,96.56861962727811L103.25589957237244,96.64272776389404L103.37257290522257,96.71673610501225L103.60591957092285,96.86438021739045L103.72259290377299,96.93802929471681L104.0726129023234,97.15829126427815L104.53930623372396,97.45034611490803L104.88932623227437,97.66819303342425L105.00599956512451,97.740578034446L105.12267289797465,97.81285658693685L105.35601956367492,97.95706108115988L105.47269289652506,98.02899367592525L105.5893662293752,98.10081316912652L105.70603956222534,98.17251290773052L105.93938622792562,98.31559303934577L106.05605956077575,98.38696012629066L106.17273289362589,98.45821411167145L106.63942622502645,98.7421189966532L107.106119556427,99.02424086874214L107.22279288927714,99.09449024611243L107.45613955497741,99.23466300222708L107.57281288782755,99.30458638097144L107.6894862206777,99.37439665815171L107.80615955352783,99.44410048680106L107.92283288637798,99.51369121388632L108.0395062192281,99.58316883940748L108.38952621777852,99.79096302478547L108.50619955062866,99.86000820314979L109.2062395477295,100.27199728295423L109.43958621342976,100.40846429958643L109.5562595462799,100.47653480858956L109.67293287913004,100.54449886906178L109.78960621198019,100.6123531544865L110.02295287768047,100.74774903277637L110.37297287623088,100.95004115971273L110.48964620908102,101.01726340698514L110.83966620763142,101.21827482503393L110.95633954048157,101.28507793121587L111.0730128733317,101.3517679358337L111.30635953903199,101.48483525250982L111.53970620473225,101.61748010157888L111.88972620328268,101.81567063355844L112.00639953613282,101.88151902947874L112.23974620183309,102.01291976134273L112.58976620038351,102.20924079099811L112.70643953323365,102.27447045483247L112.82311286608378,102.3395969966525L113.05645953178406,102.46955734683256L113.1731328646342,102.5343845021594L113.28980619748434,102.59910188243873L113.5231528631846,102.7282372565042L113.63982619603475,102.79265857680693L113.75649952888489,102.85697012206215L114.33986619313558,103.17702758935569L114.80655952453613,103.43126992589484L114.92323285738627,103.49458018965615L115.15657952308655,103.62090465720216L115.38992618878683,103.74681996320747L115.6232728544871,103.87234606677163L115.73994618733724,103.93496441508199L115.85661952018738,103.99748629441122L115.97329285303752,104.05989839869294L116.08996618588766,104.1222206870267L116.20663951873779,104.18444317986273L116.43998618443807,104.30859543207477L116.67333285013835,104.43235848184565L116.90667951583862,104.55573232917538L117.25669951438904,104.74006126651994L117.49004618008931,104.86246377100508L117.60671951293945,104.92352530955083L117.72339284578959,104.98449370563202L118.19008617719014,105.22738596756243L118.42343284289042,105.34826492744885L118.54010617574056,105.40856136717865L118.77345284144084,105.528871492728L119.12347283999125,105.70862314324324L119.35681950569153,105.82799519111391L119.47349283854167,105.88753318506095L119.5901661713918,105.94698468957661L119.94018616994222,106.12478367485289L120.29020616849263,106.30173772491504L120.40687950134277,106.36054388521204L120.64022616704305,106.47786347234602L120.87357283274332,106.59483044872134L121.1069194984436,106.71142152872187L121.69028616269429,107.00131081705096L121.92363282839457,107.1166311677137L122.04030616124471,107.17415994563973L122.15697949409486,107.2315955811012L122.27365282694498,107.28894140061472L122.6236728254954,107.46044661650069L123.32371282259624,107.80105197677729L123.5570594882965,107.91387743999672L123.67373282114664,107.9701587742011L123.79040615399678,108.0263536189741L123.90707948684692,108.08246197431573L124.02375281969707,108.13847718719282L124.49044615109761,108.36167979742066L124.7237928167979,108.47276549246297L124.84046614964804,108.52817195280389L125.19048614819845,108.69388902982139L125.30715948104859,108.74895618547002L125.42383281389873,108.80393352517069L125.54050614674885,108.85883768150636L125.657179479599,108.91364204234429L125.89052614529928,109.0230112548256L126.00719947814942,109.07756612691921L126.12387281099956,109.13203783609804L126.24054614384968,109.18642638236209L126.47389280954997,109.29494733311267L126.82391280810039,109.45708840479477L127.05725947380066,109.56476774684782L127.1739328066508,109.61848766327707L127.40727947235108,109.72566802784145L127.52395280520122,109.77913180249318L127.87397280375163,109.93903412850949L127.99064613660177,109.9921685780187L128.22399280230206,110.0981913148094L128.34066613515216,110.15107960209087L129.15737946510313,110.51901894919632L129.2740527979533,110.57126189225913L129.39072613080344,110.62342167240716L129.50739946365357,110.67549496312382L129.6240727965037,110.7274884174423L129.74074612935382,110.77940536187918L129.85741946220398,110.83124579643447L130.09076612790426,110.93467717680072L130.20743946075441,110.98627810216145L130.3241127936045,111.0377958646074L130.67413279215495,111.19187346007274L130.7908061250051,111.24307520344254L130.90747945785523,111.29419711041416L131.02415279070536,111.34523918098759L131.25749945640564,111.44709379248967L131.95753945350648,111.75077814512194L132.0742127863566,111.80112164721125L132.19088611920677,111.85138198638577L132.42423278490702,111.95168311463982L132.89092611630758,112.151357273019L133.240946114858,112.30031203293409L133.59096611340843,112.44859483649778L134.05765944480896,112.64523188522931L134.40767944335937,112.79192128734587L134.5243527762095,112.84067138798805L134.64102610905965,112.88934830526523L134.87437277475993,112.9864726101748L134.99104610761006,113.03492665084038L135.1077194404602,113.08330750814095L135.45773943901062,113.22799434726969L135.57441277186078,113.27607914459365L135.80775943756103,113.37202918914657L136.0411061032613,113.46768317372289L136.15777943611147,113.51540205422184L136.39112610181172,113.6106269181579L136.624472767512,113.70555572211737L136.74114610036216,113.7529086857913L136.97449276606244,113.8474116956271L137.2078394317627,113.94162529851948L137.32451276461285,113.98862565143476L137.44118609746297,114.03554616795185L137.55785943031313,114.08241013368689L137.9078794288635,114.22255295115222L138.02455276171366,114.26913083646043L138.14122609456382,114.31563553840364L138.4912460931142,114.45472052359301L138.60791942596435,114.50094579814257L139.54130608876548,114.86822316844639L139.89132608731586,115.00481326619246L140.00799942016602,115.05020691159424L140.2413460858663,115.14078463185258L140.47469275156658,115.23109290426704L140.5913660844167,115.27615057149313L140.9413860829671,115.41089777904774L141.05805941581727,115.45567601888018L141.29140608151755,115.54504288709937L141.40807941436768,115.58962486245294L141.5247527472178,115.63413698095809L141.64142608006796,115.67858589564801L141.99144607861837,115.81153013121026L142.92483274141946,116.16313295533695L143.04150607426962,116.2067868325616L143.15817940711975,116.25038083248762L143.39152607282003,116.33736258831101L143.6248727385203,116.42409485539007L143.74154607137044,116.46735953017357L143.8582194042206,116.51056100114184L144.09156606992084,116.5967710051161L144.32491273562113,116.68272154079625L144.44158606847128,116.72560366617178L144.5582594013214,116.76842258773208L144.90827939987182,116.8964934764884L145.02495273272197,116.93905958278778L145.1416260655721,116.98155250572215L145.7249927298228,117.19310898136465L145.95833939552307,117.27729646325153L146.0750127283732,117.31929373521383L146.42503272692363,117.44491963427572L146.6583793926239,117.52835864992961L147.35841938972473,117.77718874397509L147.47509272257486,117.81844752925417L147.70843938827514,117.90078214139983L147.94178605397542,117.98288057086752L148.40847938537598,118.1463356166031L148.64182605107627,118.22771219197053L148.87517271677652,118.30884260511021L149.1085193824768,118.38974348860512L149.34186604817708,118.4703948833557L149.57521271387736,118.55082340149467L149.6918860467275,118.5909445180996L149.80855937957764,118.63100908392249L149.92523271242777,118.67101044593015L150.04190604527793,118.71095525715576L150.50859937667846,118.87015901468794L150.74194604237874,118.94940661943708L150.85861937522887,118.98894559563858L151.5586593723297,119.22496860080842L151.79200603803,119.30318165889774L152.02535270373028,119.38117184037546L152.1420260365804,119.42008875797443L152.25869936943053,119.45893914524157L152.95873936653138,119.69087386152098L153.30875936508178,119.80608443713622L153.54210603078207,119.88261760434705L153.89212602933247,119.99699322429792L154.24214602788288,120.11087984630991L154.35881936073304,120.14872895208315L154.59216602643332,120.22427081734983L154.70883935928344,120.26195359729351L154.82551269213357,120.29958980600492L154.94218602498373,120.33716946393427L155.175532690684,120.41216245396343L155.29220602353413,120.44958243909642L155.52555268923442,120.52424943049965L155.64222602208454,120.56150641631967L155.7588993549347,120.59871017787424L156.1089193534851,120.70999546391201L156.22559268633523,120.74698300188815L156.45893935203551,120.82079507852748L157.39232601483664,121.11396098569878L157.50899934768677,121.15036970978808L157.6256726805369,121.18672520961192L157.74234601338705,121.2230308116869L158.09236601193746,121.33163492535226L158.20903934478758,121.36773428339859L158.32571267763774,121.40378041717946L158.67573267618815,121.5116094524791L158.7924060090383,121.54744934223133L158.90907934188843,121.58323933423469L159.25909934043884,121.69030327071839L160.6591793346405,122.11402164802296L161.0091993331909,122.2188302062579L161.2425459988912,122.28845419850907L161.35921933174134,122.32319301126965L161.5925659974416,122.3925242700608L161.70923933029175,122.42711338957479L162.05925932884216,122.5305946676899L162.40927932739257,122.63364349864817L162.52595266024272,122.66789331346986L162.64262599309285,122.70209655705928L162.759299325943,122.73624990289983L162.87597265879313,122.7703600040247L162.99264599164326,122.8044168808841L163.1093193244934,122.83842385999463L163.22599265734354,122.8723875943895L163.45933932304382,122.9401686964492L163.6926859887441,123.00776684009642L163.80935932159423,123.04149106529673L164.0427059872945,123.1087964754839L164.2760526529948,123.175915600742L164.50939931869507,123.24284844107098L164.6260726515452,123.27624666764535L164.74274598439536,123.30959166995427L164.85941931724548,123.3428967540641L164.9760926500956,123.37615194042507L165.09276598294576,123.40936388207035L165.55945931434633,123.54173928329553L166.14282597859702,123.70617232490886L166.25949931144714,123.73891855423139L166.49284597714743,123.8042812787294L166.60951930999755,123.83689444738829L167.07621264139812,123.96689138925083L167.19288597424824,123.99927835478152L167.3095593070984,124.03162207559654L167.54290597279868,124.09616980352973L167.8929259713491,124.19266207028699L168.2429459698995,124.28874850202016L168.47629263559978,124.35258768191943L168.70963930130006,124.41624722992282L168.82631263415018,124.44801546336757L169.05965929985047,124.51141221656025L169.1763326327006,124.54304738934135L169.52635263125103,124.63768678635739L169.64302596410116,124.66914565375916L169.75969929695128,124.70056127644526L169.99304596265156,124.76326611418699L170.10971929550172,124.79454867620944L170.22639262835185,124.82579797306599L170.45973929405213,124.88815352656567L170.57641262690225,124.91927308927515L170.6930859597524,124.95034275423578L170.80975929260254,124.98137250099731L170.9264326254527,125.01236232955975L171.04310595830282,125.04330891340652L171.6264726225535,125.19739648842162L171.74314595540363,125.22809025700747L171.97649262110392,125.28934473351549L172.44318595250448,125.41136136207606L172.5598592853546,125.44176239720187L172.7932059510549,125.50243140678987L173.25989928245545,125.62329040757675L173.49324594815573,125.68347041922587L173.72659261385598,125.74348410504541L173.95993927955627,125.80334144458519L174.07661261240642,125.83321023705645L174.19328594525655,125.86303245829541L174.3099592781067,125.89282141436848L174.54330594380696,125.95226626585097L174.8933259423574,126.04114413613127L175.00999927520752,126.07068360346L175.2433459409078,126.12965276306994L175.36001927375793,126.159075802318L175.47669260660808,126.18846224988354L175.71003927230834,126.24710873738417L176.1767326037089,126.36393600006267L176.41007926940918,126.42211344872393L176.5267526022593,126.45114395901425L176.7600992679596,126.50908522499756L176.87677260080974,126.53799598069057L177.22679259936015,126.62449871812484L177.34346593221028,126.65325978057126L177.92683259646097,126.79646631981697L178.04350592931112,126.82499452610202L178.16017926216125,126.8534794876714L178.2768525950114,126.88193118407483L178.51019926071166,126.93871814880106L178.74354592641194,126.99535542028067L178.8602192592621,127.02361417872183L178.97689259211222,127.0518363454805L179.09356592496235,127.08002192055667L179.2102392578125,127.10817423046691L179.32691259066263,127.13627996914491L179.67693258921307,127.22038761463361L180.02695258776347,127.3041592819466L180.26029925346376,127.35981855754844L180.493645919164,127.41533146642027L180.61031925201416,127.44303469659073L180.7269925848643,127.4706980085621L180.84366591771445,127.49832472885097L180.96033925056457,127.52591485745734L181.42703258196514,127.63591610809095L181.89372591336567,127.74533189180454L182.12707257906595,127.7998268865995L182.2437459119161,127.82701450669833L182.59376591046652,127.90837777599941L182.71043924331664,127.93542568240142L182.8271125761668,127.96243699712093L183.1771325747172,128.04325804421765L183.5271525732676,128.1237663987548L183.64382590611777,128.1505315512466L183.7604992389679,128.17726011205588L183.99384590466818,128.2306141116601L184.1105192375183,128.25723622393846L184.22719257036846,128.2838250710509L184.57721256891887,128.36338536835962L184.81055923461915,128.41624870676665L184.92723256746928,128.44262798333386L185.04390590031943,128.46897898451004L185.16057923316956,128.49528674097056L185.27725256601968,128.52156455878173L185.39392589886984,128.54780578491042L185.62727256457012,128.60018844167007L185.74394589742025,128.62632654578442L186.09396589597065,128.70454126713202L186.67733256022134,128.83422218991842L188.077412554423,129.14202477009047L188.19408588727316,129.1674593159458L188.3107592201233,129.19286225989353L188.42743255297344,129.21822861215878L188.89412588437398,129.31937467562693L189.24414588292439,129.3948932552775L189.36081921577454,129.41999847599033L189.59416588147482,129.47011910146801L189.71083921432495,129.49512618994143L189.82751254717508,129.5201050030238L189.94418588002523,129.54505221419856L190.1775325457255,129.59484351453375L190.4108792114258,129.64451173375505L190.52755254427592,129.66929594561685L190.64422587712605,129.69405021882932L190.87757254282633,129.74345896975655L190.99424587567648,129.76812176376274L191.1109192085266,129.7927446395699L191.3442658742269,129.84190556501105L191.57761253992717,129.89093675630517L192.277652537028,130.03728186395458L192.51099920272827,130.08581241450173L193.09436586697896,130.2066015584402L193.2110391998291,130.23066557946004L193.67773253122965,130.32662061378784L194.26109919548034,130.4458795600944L194.3777725283305,130.46963587832957L194.84446585973103,130.56437507084334L195.3111591911316,130.658635244968L195.661179189682,130.7290193462602L196.0111991882324,130.79913067319197L196.12787252108257,130.8224445647205L196.2445458539327,130.84573018085803L196.5945658524831,130.91540074434147L196.71123918533326,130.93856826914L197.06125918388366,131.00788954838137L197.29460584958395,131.05395847665116L197.41127918243407,131.07695135932866L197.52795251528423,131.09991097684025L198.3446658452352,131.25983825173097L198.46133917808532,131.28257332937267L198.57801251093545,131.30527680510676L198.6946858437856,131.3279536687081L198.9280325094859,131.37321591670454L199.04470584233601,131.39580629087453L199.16137917518617,131.41837005291177L199.2780525080363,131.44090054978312L199.39472584088642,131.4634077610383L199.51139917373658,131.4858866969025L199.6280725065867,131.50833735737564L199.74474583943686,131.53075807919947L199.861419172287,131.5531505256323L200.2114391708374,131.62016153910116L200.44478583653768,131.66470026973906L201.02815250078837,131.77555477187826L201.14482583363852,131.79764117878472L201.26149916648865,131.819704300075L201.49484583218893,131.86374072670765L202.3115591621399,132.01701663167452L202.54490582784018,132.06056738688486L203.12827249209087,132.16897190955476L203.244945824941,132.19057264503888L203.71163915634156,132.27670613913156L203.94498582204184,132.3196132133815L204.06165915489197,132.34102766393656L204.29500582059225,132.38377672864843L204.41167915344238,132.40511300606357L204.64502581914266,132.4477023979791L204.7616991519928,132.46896050225433L205.46173914909363,132.59595027311858L205.57841248194376,132.61702375572304L205.6950858147939,132.63807395271135L206.2784524790446,132.74292908217856L206.39512581189473,132.7638262594037L207.44518580754598,132.95072493081486L207.5618591403961,132.97137095603733L207.91187913894655,133.033141042617L208.02855247179667,133.05367895605028L208.1452258046468,133.07419524712572L208.37857247034708,133.11514965613674L208.61191913604736,133.15600759616657L208.84526580174764,133.1967624141821L209.19528580029805,133.25770918790548L209.3119591331482,133.2779759902366L209.54530579884846,133.3184380747921L209.66197913169862,133.33863003049993L209.8953257973989,133.37894741158374L210.12867246309915,133.4191616706532L210.2453457959493,133.43923220850547L210.4786924616496,133.47930010084494L210.5953657944997,133.49930244510705L211.06205912590028,133.57905568037805L211.1787324587504,133.598933280268L211.41207912445068,133.6386202864578L211.5287524573008,133.65842802949936L211.64542579015097,133.67820749714988L211.7620991230011,133.69796700570086L211.99544578870137,133.7374128394378L212.1121191215515,133.75710082788208L212.22879245440166,133.7767655307102L212.34546578725178,133.7964052846639L212.81215911865235,133.8747347708339L213.04550578435263,133.9137548104472L213.16217911720275,133.93323156508794L213.2788524500529,133.95268503411253L213.51219911575316,133.9915221153133L213.74554578145344,134.03026439079125L213.97889244715373,134.06891685032122L214.212239112854,134.10746951435345L214.32891244570413,134.12671507609113L214.4455857785543,134.14593402569605L214.67893244425457,134.18430872109067L214.7956057771047,134.20346280362207L214.91227910995482,134.22259360053732L215.02895244280498,134.24170111183645L215.1456257756551,134.26078367426115L215.26229910850526,134.2798462775863L215.4956457742055,134.31790162738818L215.61231910705567,134.3368960371232L215.96233910560608,134.39373955263147L216.0790124384562,134.41264580967683L216.31235910415649,134.45038680366088L216.42903243700664,134.4692232038578L216.77905243555705,134.52559601726844L216.89572576840717,134.54434260151743L217.01239910125733,134.5630675634086L217.12907243410746,134.5817725662002L217.2457457669576,134.60045095685908L217.47909243265786,134.6377461976199L217.94578576405843,134.71206723129765L218.1791324297587,134.74910300376436L218.29580576260884,134.76758512994437L218.412479095459,134.78604563376655L218.7624990940094,134.84129408456937L218.87917242685953,134.85967142547676L219.1125190925598,134.89635625044312L219.57921242396037,134.96946310556513L219.6958857568105,134.98768410019275L219.81255908966065,135.0058884622374L219.92923242251078,135.0240712019242L220.16257908821106,135.0603651611911L220.62927241961162,135.13270359098058L220.74594575246175,135.1507366374208L220.97929241816203,135.1867361999694L221.09596575101216,135.20470604259438L221.2126390838623,135.2226525996032L221.32931241671244,135.24057919751252L221.56265908241272,135.27636918951586L221.91267908096313,135.3298978312411L222.02935241381329,135.34769968477826L222.1460257466634,135.36547825269923L222.26269907951354,135.3832401880373L222.3793724123637,135.40097883775917L222.7293924109141,135.454071705811L222.84606574376423,135.47172885587642L223.3127590751648,135.54215121210945L223.42943240801495,135.55970524016055L223.6627790737152,135.5947517557058L223.77945240656535,135.61224756971654L223.89612573941548,135.62971843485286L224.36281907081604,135.69940729417755L224.71283906936645,135.75146561556957L224.94618573506673,135.78606804114992L225.29620573361714,135.83782531279041L225.4128790664673,135.85503504637433L225.52955239931742,135.872226484117L225.64622573216755,135.88940128927672L225.7628990650177,135.9065528088203L225.996245730718,135.9407992971254L226.1129190635681,135.95789260262862L226.22959239641824,135.974964285774L226.57961239496868,136.02606623364608L226.6962857278188,136.04306140690989L226.92963239351909,136.0769935393971L227.0463057263692,136.09392883536228L227.16297905921937,136.11084583548617L227.51299905776978,136.1614820710355L227.74634572347006,136.19514142916228L227.86301905632018,136.2119420012055L227.97969238917034,136.22872095089087L228.09636572202047,136.24548493125158L228.91307905197144,136.36228391853905L229.02975238482156,136.37889487913657L229.379772383372,136.42860800633187L229.9631390476227,136.51108898520755L230.42983237902322,136.57673779013237L230.6631790447235,136.6094474277724L230.8965257104238,136.64208554530572L231.12987237612407,136.67464881621572L231.2465457089742,136.690903839538L231.36321904182435,136.70713724050245L231.47989237467448,136.72335567214225L231.94658570607504,136.78803978725566L232.06325903892517,136.80416507643088L232.17993237177532,136.82027040650655L232.41327903747558,136.85243116890905L232.52995237032573,136.8684849379776L232.64662570317586,136.88451874794657L233.11331903457642,136.94847435592652L233.3466657002767,136.9803440481273L233.58001236597696,137.01214388347967L233.81335903167724,137.04387053546705L233.9300323645274,137.05970309118226L234.16337903022767,137.091324957897L234.6300723616282,137.15435246774808L234.8634190273285,137.1857564476261L234.98009236017862,137.2014376468364L235.33011235872905,137.24835982661182L235.68013235727946,137.295128986624L236.14682568868002,137.35724170441253L236.38017235438028,137.38819161477588L236.49684568723043,137.40364162108312L236.84686568578084,137.4498901812488L237.3135590171814,137.5113126468447L237.43023235003153,137.52662460271338L237.5469056828817,137.54192325251574L237.6635790157318,137.55720027996023L238.01359901428222,137.6029332300543L238.13027234713238,137.6181470536836L238.2469456799825,137.63333759169672L238.48029234568278,137.6636770862656L238.5969656785329,137.67881772652987L238.71363901138307,137.69394672398607L238.94698567708335,137.72414983137475L239.06365900993347,137.7392239413072L239.41367900848388,137.7843498021234L239.53035234133404,137.7993607082406L239.7636990070343,137.8293276329513L239.99704567273457,137.85923135384675L240.11371900558473,137.8741574337909L240.23039233843485,137.88906688115208L241.04710566838583,137.99297727990745L241.16377900123595,138.00775699312157L241.2804523340861,138.02251841049448L241.39712566693623,138.037266521801L242.09716566403708,138.12540424213978L242.2138389968872,138.14003592536562L242.33051232973733,138.1546543025251L242.4471856625875,138.1692560471016L242.5638589954376,138.18383949583688L242.7972056611379,138.21296148533344L243.1472256596883,138.25652554661013L243.49724565823874,138.2999449044151L243.96393898963927,138.35761672255455L244.08061232248943,138.37199559051948L244.19728565533956,138.38635782590143L244.3139589881897,138.40070342870044L244.43063232103984,138.41503572543309L244.66397898674012,138.44365208440777L244.78065231959025,138.45793614664984L245.2473456509908,138.51492103911323L245.59736564954122,138.5574904719292L245.71403898239134,138.5716531163157L246.06405898094178,138.61404291723574L246.1807323137919,138.6281440210653L246.29740564664206,138.6422251657953L246.4140789794922,138.65629633097555L246.53075231234232,138.67034753705624L246.7640989780426,138.69840670450196L246.88077231089275,138.71241133935038L246.99744564374288,138.7264043313907L247.114118976593,138.7403840173647L247.23079230944316,138.75434707075573L247.69748564084372,138.81004127478178L247.81415897369385,138.82392781829122L247.93083230654398,138.8378010557343L248.2808523050944,138.87932429908238L248.51419897079467,138.90693272353L248.63087230364482,138.9207161450251L248.74754563649495,138.93448127067896L248.98089230219523,138.9619699405293L249.09756563504536,138.97569182146748L249.2142389678955,138.98940205959758L249.4475856335958,139.01677263810893L249.56425896644592,139.03043464174846L249.91427896499633,139.07133582649402L250.1476256306966,139.09853342614264L250.3809722963969,139.125667821976L250.49764562924702,139.13921506079316L250.7309922949473,139.16626463045347L251.0810122934977,139.2067300415256L251.314358959198,139.2336349077142L251.43103229204814,139.24706405519237L251.54770562489827,139.26047989660415L251.78105229059855,139.28727166122866L252.01439895629883,139.31400188529622L252.13107228914896,139.3273462066013L252.24774562199912,139.34067555858175L252.71443895339965,139.39385657932326L252.8311122862498,139.40711607445525L253.0644589519501,139.4335918200036L253.29780561765034,139.46001267802822L253.88117228190103,139.52581450271623L254.3478656133016,139.57820713902564L254.46453894615172,139.59127203293707L254.58121227900187,139.60432029426556L254.697885611852,139.6173552495277L256.09796560605366,139.77270690084742L256.3313122717539,139.79840756803003L256.5646589374542,139.82405501094723L256.6813322703043,139.83685711004796" fill="none"></path></g></g></g></g></g></g><g transform="translate(49, 178)" clip-path="url(#clip_1)"><clipPath id="clip_1"><rect width="280" height="21"></rect></clipPath><g><g><line x1="0" y1="0" x2="0" y2="5" style="visibility: inherit;" fill="rgb(0, 0, 0)" stroke="rgb(204, 204, 204)" stroke-width="1px"></line><line x1="23.334666570027668" y1="0" x2="23.334666570027668" y2="5" style="visibility: inherit;" fill="rgb(0, 0, 0)" stroke="rgb(204, 204, 204)" stroke-width="1px"></line><line x1="46.669333140055336" y1="0" x2="46.669333140055336" y2="5" style="visibility: inherit;" fill="rgb(0, 0, 0)" stroke="rgb(204, 204, 204)" stroke-width="1px"></line><line x1="70.00399971008301" y1="0" x2="70.00399971008301" y2="5" style="visibility: inherit;" fill="rgb(0, 0, 0)" stroke="rgb(204, 204, 204)" stroke-width="1px"></line><line x1="93.33866628011067" y1="0" x2="93.33866628011067" y2="5" style="visibility: inherit;" fill="rgb(0, 0, 0)" stroke="rgb(204, 204, 204)" stroke-width="1px"></line><line x1="116.67333285013835" y1="0" x2="116.67333285013835" y2="5" style="visibility: inherit;" fill="rgb(0, 0, 0)" stroke="rgb(204, 204, 204)" stroke-width="1px"></line><line x1="140.00799942016602" y1="0" x2="140.00799942016602" y2="5" style="visibility: inherit;" fill="rgb(0, 0, 0)" stroke="rgb(204, 204, 204)" stroke-width="1px"></line><line x1="163.3426659901937" y1="0" x2="163.3426659901937" y2="5" style="visibility: inherit;" fill="rgb(0, 0, 0)" stroke="rgb(204, 204, 204)" stroke-width="1px"></line><line x1="186.67733256022134" y1="0" x2="186.67733256022134" y2="5" style="visibility: inherit;" fill="rgb(0, 0, 0)" stroke="rgb(204, 204, 204)" stroke-width="1px"></line><line x1="210.01199913024902" y1="0" x2="210.01199913024902" y2="5" style="visibility: inherit;" fill="rgb(0, 0, 0)" stroke="rgb(204, 204, 204)" stroke-width="1px"></line><line x1="233.3466657002767" y1="0" x2="233.3466657002767" y2="5" style="visibility: inherit;" fill="rgb(0, 0, 0)" stroke="rgb(204, 204, 204)" stroke-width="1px"></line><line x1="256.6813322703043" y1="0" x2="256.6813322703043" y2="5" style="visibility: inherit;" fill="rgb(0, 0, 0)" stroke="rgb(204, 204, 204)" stroke-width="1px"></line><line x1="280.01599884033203" y1="0" x2="280.01599884033203" y2="5" style="visibility: inherit;" fill="rgb(0, 0, 0)" stroke="rgb(204, 204, 204)" stroke-width="1px"></line></g><g transform="translate(0, 8)"><text style="text-anchor: middle; visibility: hidden; font-family: &quot;Helvetica Neue&quot;, sans-serif; font-size: 12px; font-weight: 200;" x="0" y="0" dx="0em" dy="0.95em" fill="rgb(50, 49, 63)" stroke="none" stroke-width="1px">-200</text><text style="text-anchor: middle; visibility: hidden; font-family: &quot;Helvetica Neue&quot;, sans-serif; font-size: 12px; font-weight: 200;" x="23.334666570027668" y="0" dx="0em" dy="0.95em" fill="rgb(50, 49, 63)" stroke="none" stroke-width="1px">0</text><text style="text-anchor: middle; visibility: hidden; font-family: &quot;Helvetica Neue&quot;, sans-serif; font-size: 12px; font-weight: 200;" x="46.669333140055336" y="0" dx="0em" dy="0.95em" fill="rgb(50, 49, 63)" stroke="none" stroke-width="1px">200</text><text style="text-anchor: middle; visibility: hidden; font-family: &quot;Helvetica Neue&quot;, sans-serif; font-size: 12px; font-weight: 200;" x="70.00399971008301" y="0" dx="0em" dy="0.95em" fill="rgb(50, 49, 63)" stroke="none" stroke-width="1px">400</text><text style="text-anchor: middle; visibility: hidden; font-family: &quot;Helvetica Neue&quot;, sans-serif; font-size: 12px; font-weight: 200;" x="93.33866628011067" y="0" dx="0em" dy="0.95em" fill="rgb(50, 49, 63)" stroke="none" stroke-width="1px">600</text><text style="text-anchor: middle; visibility: hidden; font-family: &quot;Helvetica Neue&quot;, sans-serif; font-size: 12px; font-weight: 200;" x="116.67333285013835" y="0" dx="0em" dy="0.95em" fill="rgb(50, 49, 63)" stroke="none" stroke-width="1px">800</text><text style="text-anchor: middle; visibility: hidden; font-family: &quot;Helvetica Neue&quot;, sans-serif; font-size: 12px; font-weight: 200;" x="140.00799942016602" y="0" dx="0em" dy="0.95em" fill="rgb(50, 49, 63)" stroke="none" stroke-width="1px">1k</text><text style="text-anchor: middle; visibility: hidden; font-family: &quot;Helvetica Neue&quot;, sans-serif; font-size: 12px; font-weight: 200;" x="163.3426659901937" y="0" dx="0em" dy="0.95em" fill="rgb(50, 49, 63)" stroke="none" stroke-width="1px">1.2k</text><text style="text-anchor: middle; visibility: hidden; font-family: &quot;Helvetica Neue&quot;, sans-serif; font-size: 12px; font-weight: 200;" x="186.67733256022134" y="0" dx="0em" dy="0.95em" fill="rgb(50, 49, 63)" stroke="none" stroke-width="1px">1.4k</text><text style="text-anchor: middle; visibility: hidden; font-family: &quot;Helvetica Neue&quot;, sans-serif; font-size: 12px; font-weight: 200;" x="210.01199913024902" y="0" dx="0em" dy="0.95em" fill="rgb(50, 49, 63)" stroke="none" stroke-width="1px">1.6k</text><text style="text-anchor: middle; visibility: hidden; font-family: &quot;Helvetica Neue&quot;, sans-serif; font-size: 12px; font-weight: 200;" x="233.3466657002767" y="0" dx="0em" dy="0.95em" fill="rgb(50, 49, 63)" stroke="none" stroke-width="1px">1.8k</text><text style="text-anchor: middle; visibility: hidden; font-family: &quot;Helvetica Neue&quot;, sans-serif; font-size: 12px; font-weight: 200;" x="256.6813322703043" y="0" dx="0em" dy="0.95em" fill="rgb(50, 49, 63)" stroke="none" stroke-width="1px">2k</text><text style="text-anchor: middle; visibility: hidden; font-family: &quot;Helvetica Neue&quot;, sans-serif; font-size: 12px; font-weight: 200;" x="280.01599884033203" y="0" dx="0em" dy="0.95em" fill="rgb(50, 49, 63)" stroke="none" stroke-width="1px">2.2k</text></g><line x1="0" y1="0" x2="280.01599884033203" y2="0" fill="rgb(0, 0, 0)" stroke="rgb(204, 204, 204)" stroke-width="1px"></line></g></g></g></g></svg>